<svg data-v-423bf9ae="" xmlns="http://www.w3.org/2000/svg" viewBox="0 0 362 90" class="iconLeftSlogan"><!----><!----><!----><g data-v-423bf9ae="" id="696d392f-f073-4c45-806b-208222d15d95" fill="white" transform="matrix(6.185567131938485,0,0,6.185567131938485,120.01825866403442,-21.092784689240297)"><path d="M7.95 12.97L7.95 12.97L4.77 12.97L4.77 12.97Q4.24 8.72 3.42 5.59L3.42 5.59L3.42 5.59Q3.82 4.79 4.10 4.12L4.10 4.12L4.10 4.12Q4.15 4.01 4.35 3.84L4.35 3.84L4.35 3.84Q4.55 3.67 4.70 3.67L4.70 3.67L6.87 3.67L6.87 3.67Q7.15 5.74 7.63 8.27L7.63 8.27L7.63 8.27Q8.10 10.80 8.55 12.52L8.55 12.52L8.55 12.52Q8.55 12.61 8.33 12.79L8.33 12.79L8.33 12.79Q8.11 12.97 7.95 12.97ZM2.49 11.55L2.49 11.76L2.51 12.52L2.51 12.52Q2.51 12.61 2.29 12.79L2.29 12.79L2.29 12.79Q2.06 12.97 1.91 12.97L1.91 12.97L-0.27 12.97L-0.27 12.97Q0.81 11.14 3.08 6.26L3.08 6.26L3.08 6.26Q3.14 6.44 3.14 6.76L3.14 6.76L3.14 6.76Q3.14 7.08 3.05 7.68L3.05 7.68L3.05 7.68Q2.95 8.28 2.81 9.10L2.81 9.10L2.81 9.10Q2.67 9.91 2.60 10.42L2.60 10.42L2.60 10.42Q3.58 10.57 4.03 10.75L4.03 10.75L4.03 10.75Q4.03 11.16 3.89 11.36L3.89 11.36L3.89 11.36Q3.18 11.42 2.49 11.55L2.49 11.55ZM17.96 12.52L17.96 12.52L17.96 12.52Q17.96 12.61 17.75 12.79L17.75 12.79L17.75 12.79Q17.53 12.97 17.37 12.97L17.37 12.97L15.61 12.97L15.61 12.97Q14.83 11.57 13.55 9.78L13.55 9.78L13.55 9.78Q12.26 7.99 11.20 6.78L11.20 6.78L11.20 6.78Q11.29 6.05 11.47 4.12L11.47 4.12L11.47 4.12Q11.49 4.02 11.71 3.85L11.71 3.85L11.71 3.85Q11.92 3.67 12.07 3.67L12.07 3.67L13.85 3.67L13.85 3.67Q14.76 5.27 15.79 6.70L15.79 6.70L15.79 6.70Q16.83 8.13 18.21 9.82L18.21 9.82L18.21 9.82Q18.03 11.46 17.96 12.52ZM17.85 8.62L17.85 8.62L17.85 8.62Q17.52 6.93 17.25 5.96L17.25 5.96L17.25 5.96Q16.98 5.00 16.52 4.12L16.52 4.12L16.52 4.12Q16.52 4.03 16.74 3.85L16.74 3.85L16.74 3.85Q16.97 3.67 17.13 3.67L17.13 3.67L19.30 3.67L19.30 3.67Q18.85 5.65 18.45 8.16L18.45 8.16L18.45 8.16Q18.45 8.26 18.23 8.44L18.23 8.44L18.23 8.44Q18.01 8.62 17.85 8.62ZM11.57 8.11L11.57 8.11L11.57 8.11Q11.74 9.55 12.05 10.52L12.05 10.52L12.05 10.52Q12.36 11.48 12.91 12.52L12.91 12.52L12.91 12.52Q12.91 12.61 12.69 12.79L12.69 12.79L12.69 12.79Q12.47 12.97 12.30 12.97L12.30 12.97L10.13 12.97L10.13 12.97Q10.59 10.99 10.96 8.57L10.96 8.57L10.96 8.57Q10.96 8.48 11.19 8.30L11.19 8.30L11.19 8.30Q11.41 8.11 11.57 8.11ZM25.74 12.97L25.74 12.97L22.56 12.97L22.56 12.97Q23.56 9.34 23.99 4.12L23.99 4.12L23.99 4.12Q23.99 4.03 24.21 3.85L24.21 3.85L24.21 3.85Q24.43 3.67 24.58 3.67L24.58 3.67L27.63 3.67L27.63 3.67Q26.75 7.38 26.35 12.52L26.35 12.52L26.35 12.52Q26.35 12.61 26.13 12.79L26.13 12.79L26.13 12.79Q25.91 12.97 25.74 12.97ZM28.94 7.95L28.94 7.95L28.94 7.95Q28.94 7.01 28.65 5.87L28.65 5.87L28.65 5.87Q28.35 4.73 28.01 4.22L28.01 4.22L28.01 4.22Q28.05 3.90 28.21 3.67L28.21 3.67L30.34 3.67L30.34 3.67Q30.12 5.73 29.76 7.50L29.76 7.50L29.76 7.50Q29.73 7.60 29.43 7.78L29.43 7.78L29.43 7.78Q29.12 7.95 28.94 7.95ZM20.62 7.94L20.62 7.94L20.62 7.94Q20.67 7.14 20.88 5.84L20.88 5.84L20.88 5.84Q21.08 4.54 21.18 4.16L21.18 4.16L21.18 4.16Q21.23 4.02 21.42 3.85L21.42 3.85L21.42 3.85Q21.61 3.67 21.73 3.67L21.73 3.67L23.81 3.67L23.81 3.67Q23.11 4.50 22.74 5.21L22.74 5.21L22.74 5.21Q22.37 5.91 22.02 6.57L22.02 6.57L22.02 6.57Q21.68 7.23 21.49 7.57L21.49 7.57L21.49 7.57Q21.45 7.65 21.11 7.80L21.11 7.80L21.11 7.80Q20.77 7.94 20.62 7.94ZM35.65 3.41L35.65 3.41L35.65 3.41Q35.11 3.87 35.11 4.52L35.11 4.52L35.11 4.52Q35.11 5.17 35.47 5.83L35.47 5.83L35.47 5.83Q35.83 6.48 36.31 6.94L36.31 6.94L36.31 6.94Q36.78 7.40 37.05 7.67L37.05 7.67L37.05 7.67Q37.31 7.94 37.64 8.32L37.64 8.32L37.64 8.32Q37.97 8.70 38.17 9.00L38.17 9.00L38.17 9.00Q38.64 9.73 38.64 10.28L38.64 10.28L38.64 10.28Q38.64 10.83 38.41 11.30L38.41 11.30L38.41 11.30Q38.18 11.77 37.76 12.16L37.76 12.16L37.76 12.16Q37.34 12.54 36.69 12.80L36.69 12.80L36.69 12.80Q36.03 13.05 35.25 13.08L35.25 13.08L35.25 13.08Q35.46 12.77 35.46 12.42L35.46 12.42L35.46 12.42Q35.46 12.08 35.32 11.72L35.32 11.72L35.32 11.72Q35.18 11.36 34.88 10.95L34.88 10.95L34.88 10.95Q34.41 10.29 33.83 9.65L33.83 9.65L33.83 9.65Q33.24 9.02 33.01 8.74L33.01 8.74L33.01 8.74Q32.79 8.47 32.50 8.05L32.50 8.05L32.50 8.05Q31.94 7.25 31.94 6.43L31.94 6.43L31.94 6.43Q31.94 5.62 32.44 4.92L32.44 4.92L32.44 4.92Q32.94 4.22 33.79 3.82L33.79 3.82L33.79 3.82Q34.64 3.42 35.65 3.41ZM37.93 7.54L37.93 7.54L37.93 7.54Q37.93 6.88 37.69 6.17L37.69 6.17L37.69 6.17Q37.21 4.80 36.11 3.96L36.11 3.96L36.11 3.96Q36.13 3.83 36.35 3.66L36.35 3.66L36.35 3.66Q36.57 3.49 36.71 3.49L36.71 3.49L36.71 3.49Q37.21 3.49 37.87 3.69L37.87 3.69L37.87 3.69Q38.54 3.89 38.93 4.07L38.93 4.07L38.93 4.07Q38.96 4.28 38.96 4.79L38.96 4.79L38.96 4.79Q38.96 5.30 38.87 6.06L38.87 6.06L38.87 6.06Q38.77 6.82 38.64 7.27L38.64 7.27L38.64 7.27Q38.60 7.37 38.35 7.45L38.35 7.45L38.35 7.45Q38.10 7.54 37.93 7.54ZM34.65 12.49L34.65 12.49L34.65 12.49Q34.57 12.95 34.40 13.11L34.40 13.11L34.40 13.11Q33.68 13.11 32.70 12.93L32.70 12.93L32.70 12.93Q31.73 12.74 31.28 12.46L31.28 12.46L31.28 12.46Q31.27 12.30 31.27 12.02L31.27 12.02L31.27 12.02Q31.27 10.69 31.59 9.50L31.59 9.50L31.59 9.50Q31.62 9.39 31.82 9.22L31.82 9.22L31.82 9.22Q32.03 9.05 32.19 9.05L32.19 9.05L32.19 9.05Q32.35 9.80 32.75 10.56L32.75 10.56L32.75 10.56Q33.16 11.32 33.68 11.84L33.68 11.84L33.68 11.84Q34.19 12.37 34.65 12.49Z"></path></g><!----><g data-v-423bf9ae="" id="1d7eb8e1-9f7b-4636-b18e-ae0bd0a59ec7" transform="matrix(1.1435831609287386,0,0,1.1435831609287386,-7.164799675571423,-12.593773141081627)" stroke="none" fill="white"><path d="M81.8 33.2H52.9c-.6 0-1 .4-1 1s.4 1 1 1h28.9c.6 0 1-.4 1-1s-.5-1-1-1zM81.8 40H52.9c-.6 0-1 .4-1 1s.4 1 1 1h28.9c.6 0 1-.4 1-1s-.5-1-1-1zM76.5 52.9H52.9c-.6 0-1 .4-1 1s.4 1 1 1h23.6c.6 0 1-.4 1-1s-.5-1-1-1zM70 59.4H52.9c-.6 0-1 .4-1 1s.4 1 1 1H70c.6 0 1-.4 1-1s-.5-1-1-1zM28.6 32.5c-6.9 0-12.4 5.6-12.4 12.4s5.6 12.4 12.4 12.4V45H41c0-6.9-5.6-12.5-12.4-12.5z"></path><path d="M31.6 61C38.5 61 44 55.4 44 48.5H31.6V61z"></path><path d="M83.8 17.7H52.9v-3.6c0-1.6-1.3-3-3-3-1.6 0-3 1.3-3 3v3.6H16c-5 0-9.1 4.1-9.1 9.1v41c0 5 4.1 9.1 9.1 9.1h32.8l-9.5 11.2c-.4.4-.3 1.1.1 1.4.2.2.4.2.6.2.3 0 .6-.1.8-.4l9.1-10.8L59 89.4c.2.2.5.4.8.4.2 0 .5-.1.6-.2.4-.4.5-1 .1-1.4L51 76.9h32.8c5 0 9.1-4.1 9.1-9.1v-41c0-5-4.1-9.1-9.1-9.1zm7.1 50.1c0 3.9-3.2 7.1-7.1 7.1H16c-3.9 0-7.1-3.2-7.1-7.1v-41c0-3.9 3.2-7.1 7.1-7.1h67.8c3.9 0 7.1 3.2 7.1 7.1v41z"></path></g><!----><g data-v-423bf9ae="" id="a369ba3e-227b-416b-a8b1-98262fa2ad9d" fill="white" transform="matrix(0.36674947842020267,0,0,0.36674947842020267,118.06942118039083,58.99510568449534)"><path d="M0.76 8.02L0.76 8.02L0.76 8.02Q0.76 6.86 1.23 5.83L1.23 5.83L1.23 5.83Q1.70 4.85 2.45 4.27L2.45 4.27L2.45 4.27Q3.19 3.69 4.09 3.37L4.09 3.37L4.09 3.37Q4.98 3.05 5.82 3.05L5.82 3.05L5.82 3.05Q6.69 3.05 7.36 3.16L7.36 3.16L7.36 3.16Q7.99 3.26 8.29 3.37L8.29 3.37L8.29 3.37Q8.59 3.48 8.63 3.48L8.63 3.48L8.63 3.48Q8.80 3.48 8.82 3.41L8.82 3.41L8.82 3.41Q8.85 3.33 8.85 3.09L8.85 3.09L8.85 2.97L9.38 2.97L9.38 2.97Q9.42 4.30 9.55 5.64L9.55 5.64L9.04 5.65L9.04 5.65Q9.02 5.40 9.00 5.26L9.00 5.26L9.00 5.26Q9.00 5.20 9.00 5.13L9.00 5.13L9.00 5.13Q8.99 5.07 8.98 5.02L8.98 5.02L8.98 5.02Q8.98 4.98 8.98 4.95L8.98 4.95L8.98 4.95Q8.95 4.84 8.95 4.74L8.95 4.74L8.95 4.74Q8.95 4.68 8.91 4.59L8.91 4.59L8.91 4.59Q8.91 4.57 8.88 4.55L8.88 4.55L8.88 4.55Q8.85 4.52 8.85 4.50L8.85 4.50L8.85 4.50Q8.82 4.44 8.75 4.41L8.75 4.41L8.75 4.41Q8.71 4.38 8.68 4.37L8.68 4.37L8.68 4.37Q8.65 4.36 8.63 4.35L8.63 4.35L8.63 4.35Q8.61 4.35 8.59 4.33L8.59 4.33L8.59 4.33Q8.57 4.31 8.52 4.29L8.52 4.29L8.52 4.29Q8.48 4.27 8.44 4.25L8.44 4.25L8.44 4.25Q8.22 4.16 8.19 4.14L8.19 4.14L8.19 4.14Q7.84 3.96 7.20 3.83L7.20 3.83L7.20 3.83Q6.53 3.71 5.87 3.71L5.87 3.71L5.87 3.71Q4.14 3.71 3.05 4.84L3.05 4.84L3.05 4.84Q1.94 5.99 1.95 7.62L1.95 7.62L1.95 7.62Q1.95 9.35 3.17 10.69L3.17 10.69L3.17 10.69Q4.37 12.02 6.19 12.02L6.19 12.02L6.19 12.02Q7.19 12.02 8.13 11.49L8.13 11.49L8.13 11.49Q9.08 10.94 9.11 10.58L9.11 10.58L9.15 9.41L9.65 9.41L9.56 11.45L9.56 11.45Q9.50 11.49 9.37 11.57L9.37 11.57L9.37 11.57Q9.31 11.60 8.85 11.85L8.85 11.85L8.85 11.85Q8.47 12.05 8.03 12.23L8.03 12.23L8.03 12.23Q7.66 12.39 7.01 12.51L7.01 12.51L7.01 12.51Q6.41 12.63 5.84 12.64L5.84 12.64L5.84 12.64Q3.46 12.64 2.10 11.39L2.10 11.39L2.10 11.39Q0.76 10.14 0.76 8.02ZM18.06 7.83L18.06 7.83L18.06 7.83Q18.06 6.62 18.46 5.68L18.46 5.68L18.46 5.68Q18.88 4.72 19.57 4.12L19.57 4.12L19.57 4.12Q20.26 3.51 21.12 3.19L21.12 3.19L21.12 3.19Q21.96 2.88 22.91 2.88L22.91 2.88L22.91 2.88Q24.17 2.88 25.22 3.40L25.22 3.40L25.22 3.40Q26.30 3.93 27.02 5.07L27.02 5.07L27.02 5.07Q27.71 6.17 27.72 7.75L27.72 7.75L27.72 7.75Q27.72 8.70 27.41 9.54L27.41 9.54L27.41 9.54Q27.10 10.38 26.50 11.10L26.50 11.10L26.50 11.10Q25.89 11.81 24.96 12.22L24.96 12.22L24.96 12.22Q23.99 12.63 22.80 12.64L22.80 12.64L22.80 12.64Q21.67 12.64 20.73 12.23L20.73 12.23L20.73 12.23Q19.80 11.83 19.24 11.14L19.24 11.14L19.24 11.14Q18.66 10.45 18.37 9.60L18.37 9.60L18.37 9.60Q18.06 8.72 18.06 7.83ZM19.32 7.38L19.32 7.38L19.32 7.38Q19.32 8.52 19.75 9.60L19.75 9.60L19.75 9.60Q20.15 10.64 21.08 11.33L21.08 11.33L21.08 11.33Q21.99 12.03 23.18 12.04L23.18 12.04L23.18 12.04Q24.55 12.04 25.49 11.01L25.49 11.01L25.49 11.01Q26.44 9.97 26.44 8.10L26.44 8.10L26.44 8.10Q26.44 5.99 25.28 4.72L25.28 4.72L25.28 4.72Q24.13 3.46 22.62 3.45L22.62 3.45L22.62 3.45Q22.10 3.45 21.56 3.65L21.56 3.65L21.56 3.65Q21.01 3.85 20.51 4.25L20.51 4.25L20.51 4.25Q19.96 4.68 19.64 5.48L19.64 5.48L19.64 5.48Q19.32 6.27 19.32 7.38ZM35.85 3.64L35.83 3.08L38.01 3.08L43.74 10.48L43.74 4.14L43.74 4.14Q43.74 3.81 43.59 3.72L43.59 3.72L43.59 3.72Q43.44 3.64 42.98 3.64L42.98 3.64L42.49 3.64L42.51 3.08L45.49 3.08L45.49 3.64L45.17 3.64L45.17 3.64Q44.71 3.64 44.56 3.75L44.56 3.75L44.56 3.75Q44.41 3.86 44.41 4.25L44.41 4.25L44.41 12.32L44.41 12.47L44.41 12.47Q44.41 12.52 44.39 12.57L44.39 12.57L44.39 12.57Q44.38 12.61 44.34 12.64L44.34 12.64L44.34 12.64Q44.33 12.65 44.28 12.65L44.28 12.65L44.08 12.65L44.02 12.65L44.00 12.65L43.97 12.64L43.97 12.64Q43.94 12.64 43.93 12.63L43.93 12.63L43.93 12.63Q43.91 12.61 43.91 12.60L43.91 12.60L43.91 12.60Q43.91 12.58 43.90 12.57L43.90 12.57L43.90 12.57Q43.87 12.54 43.85 12.50L43.85 12.50L43.85 12.50Q43.83 12.48 43.81 12.45L43.81 12.45L43.81 12.45Q43.79 12.41 43.78 12.40L43.78 12.40L37.67 4.56L37.74 11.22L37.74 11.22Q37.74 11.67 37.91 11.77L37.91 11.77L37.91 11.77Q38.06 11.87 38.77 11.87L38.77 11.87L39.01 11.87L39.01 12.41L36.07 12.41L36.07 11.87L36.50 11.87L36.50 11.87Q36.87 11.87 36.98 11.76L36.98 11.76L36.98 11.76Q37.08 11.66 37.08 11.25L37.08 11.25L37.08 3.80L36.94 3.64L35.85 3.64ZM53.20 10.04L53.20 10.04L53.70 9.98L53.88 10.85L53.88 10.85Q53.99 11.33 54.06 11.41L54.06 11.41L54.06 11.41Q54.13 11.49 54.54 11.64L54.54 11.64L54.54 11.64Q55.38 11.95 56.27 11.95L56.27 11.95L56.27 11.95Q57.06 11.95 57.60 11.49L57.60 11.49L57.60 11.49Q58.13 11.04 58.13 10.26L58.13 10.26L58.13 10.26Q58.13 9.65 57.67 9.21L57.67 9.21L57.67 9.21Q57.20 8.76 56.34 8.30L56.34 8.30L55.77 7.98L55.77 7.98Q55.02 7.55 54.79 7.36L54.79 7.36L54.79 7.36Q54.43 7.08 54.12 6.59L54.12 6.59L54.12 6.59Q53.81 6.10 53.81 5.46L53.81 5.46L53.81 5.46Q53.81 4.39 54.65 3.68L54.65 3.68L54.65 3.68Q55.49 2.97 56.59 2.97L56.59 2.97L56.59 2.97Q56.88 2.97 57.22 3.04L57.22 3.04L57.22 3.04Q57.42 3.08 57.76 3.17L57.76 3.17L58.00 3.25L58.00 3.25Q58.09 3.25 58.13 3.16L58.13 3.16L58.13 3.16Q58.19 3.05 58.19 2.98L58.19 2.98L58.20 2.88L58.68 2.85L58.89 5.41L58.39 5.43L58.26 4.18L58.26 4.18Q57.52 3.62 56.36 3.62L56.36 3.62L56.36 3.62Q55.71 3.62 55.21 4.05L55.21 4.05L55.21 4.05Q54.73 4.47 54.73 5.12L54.73 5.12L54.73 5.12Q54.73 5.72 55.18 6.17L55.18 6.17L55.18 6.17Q55.61 6.60 56.48 7.08L56.48 7.08L57.25 7.50L57.25 7.50Q58.20 8.03 58.73 8.59L58.73 8.59L58.73 8.59Q59.27 9.15 59.27 9.92L59.27 9.92L59.27 9.92Q59.27 10.99 58.41 11.76L58.41 11.76L58.41 11.76Q57.54 12.54 56.09 12.54L56.09 12.54L56.09 12.54Q55.53 12.54 55.03 12.41L55.03 12.41L55.03 12.41Q54.52 12.29 54.47 12.29L54.47 12.29L54.47 12.29Q54.22 12.29 54.22 12.58L54.22 12.58L54.23 12.76L53.75 12.80L53.75 12.80Q53.69 12.41 53.20 10.04ZM67.83 3.64L67.45 3.64L67.45 3.08L70.81 3.08L70.83 3.64L70.29 3.64L70.29 3.64Q69.86 3.64 69.71 3.73L69.71 3.73L69.71 3.73Q69.54 3.83 69.54 4.16L69.54 4.16L69.54 9.33L69.54 9.33Q69.54 9.63 69.57 9.78L69.57 9.78L69.57 9.78Q69.61 10.01 69.77 10.41L69.77 10.41L69.77 10.41Q69.95 10.80 70.24 11.09L70.24 11.09L70.24 11.09Q70.55 11.40 71.11 11.63L71.11 11.63L71.11 11.63Q71.68 11.85 72.46 11.85L72.46 11.85L72.46 11.85Q73.32 11.85 73.86 11.67L73.86 11.67L73.86 11.67Q74.42 11.48 74.73 11.22L74.73 11.22L74.73 11.22Q75.04 10.96 75.18 10.49L75.18 10.49L75.18 10.49Q75.35 9.95 75.36 9.66L75.36 9.66L75.36 9.66Q75.39 9.18 75.39 8.67L75.39 8.67L75.39 4.14L75.39 4.14Q75.39 3.81 75.25 3.72L75.25 3.72L75.25 3.72Q75.10 3.64 74.62 3.64L74.62 3.64L74.13 3.64L74.16 3.08L76.79 3.08L76.79 3.64L76.60 3.64L76.60 3.64Q76.28 3.64 76.16 3.75L76.16 3.75L76.16 3.75Q76.05 3.86 76.05 4.25L76.05 4.25L76.05 9.22L76.05 9.22Q76.05 12.67 72.46 12.67L72.46 12.67L72.46 12.67Q70.29 12.67 69.34 11.76L69.34 11.76L69.34 11.76Q68.41 10.86 68.41 9.41L68.41 9.41L68.41 4.14L68.41 4.14Q68.41 3.81 68.30 3.72L68.30 3.72L68.30 3.72Q68.20 3.64 67.83 3.64L67.83 3.64ZM85.02 3.64L84.53 3.64L84.54 3.08L88.13 3.08L88.13 3.64L87.49 3.64L87.49 3.64Q87.12 3.64 87.00 3.72L87.00 3.72L87.00 3.72Q86.89 3.80 86.89 4.16L86.89 4.16L86.89 11.22L86.89 11.22Q86.89 11.57 86.98 11.67L86.98 11.67L86.98 11.67Q87.06 11.77 87.36 11.77L87.36 11.77L87.36 11.77Q90.23 11.74 90.88 11.63L90.88 11.63L90.88 11.63Q91.10 11.61 91.18 11.39L91.18 11.39L91.18 11.39Q91.26 11.17 91.46 10.05L91.46 10.05L91.95 10.08L91.49 12.41L84.72 12.41L84.71 11.87L85.10 11.87L85.10 11.87Q85.61 11.87 85.67 11.80L85.67 11.80L85.67 11.80Q85.76 11.72 85.76 11.33L85.76 11.33L85.76 4.09L85.76 4.09Q85.76 3.80 85.61 3.72L85.61 3.72L85.61 3.72Q85.46 3.64 85.02 3.64L85.02 3.64ZM99.96 5.35L99.46 5.33L99.46 5.33Q99.59 4.17 99.67 3.08L99.67 3.08L107.75 3.08L107.75 3.08Q107.67 4.13 107.64 4.53L107.64 4.53L107.64 4.53Q107.60 5.26 107.58 5.32L107.58 5.32L107.08 5.30L107.08 5.30Q107.16 4.34 107.16 4.16L107.16 4.16L107.16 4.16Q107.16 3.88 107.02 3.79L107.02 3.79L107.02 3.79Q106.85 3.69 106.44 3.69L106.44 3.69L104.84 3.69L104.84 3.69Q104.33 3.69 104.21 3.79L104.21 3.79L104.21 3.79Q104.11 3.87 104.10 4.36L104.10 4.36L104.10 11.22L104.10 11.22Q104.10 11.66 104.25 11.76L104.25 11.76L104.25 11.76Q104.41 11.87 104.92 11.87L104.92 11.87L105.48 11.87L105.49 12.41L101.80 12.40L101.80 11.87L102.02 11.87L102.02 11.87Q102.69 11.87 102.83 11.79L102.83 11.79L102.83 11.79Q102.98 11.70 102.98 11.28L102.98 11.28L102.98 4.48L102.98 4.48Q102.98 3.92 102.88 3.80L102.88 3.80L102.88 3.80Q102.78 3.69 102.35 3.69L102.35 3.69L100.88 3.69L100.88 3.69Q100.70 3.69 100.63 3.71L100.63 3.71L100.63 3.71Q100.56 3.72 100.45 3.72L100.45 3.72L100.45 3.72Q100.43 3.72 100.31 3.79L100.31 3.79L100.31 3.79Q100.23 3.84 100.20 3.86L100.20 3.86L100.20 3.86Q100.17 3.88 100.13 3.99L100.13 3.99L100.13 3.99Q100.11 4.05 100.08 4.14L100.08 4.14L100.08 4.14Q100.05 4.21 100.03 4.36L100.03 4.36L100.03 4.36Q100.00 4.59 100.00 4.61L100.00 4.61L100.00 4.61Q100.00 4.80 99.99 4.95L99.99 4.95L99.99 4.95Q99.99 5.02 99.98 5.15L99.98 5.15L99.98 5.15Q99.98 5.29 99.96 5.35L99.96 5.35ZM115.50 12.41L115.49 11.87L115.66 11.87L115.66 11.87Q116.05 11.87 116.18 11.73L116.18 11.73L116.18 11.73Q116.30 11.57 116.63 10.83L116.63 10.83L117.54 8.82L118.12 7.53L118.12 7.53Q118.38 6.97 118.43 6.86L118.43 6.86L118.43 6.86Q118.49 6.70 118.55 6.60L118.55 6.60L118.55 6.60Q118.60 6.51 118.61 6.45L118.61 6.45L118.71 6.21L120.13 2.74L120.43 2.74L120.43 2.74Q121.28 4.98 123.47 10.25L123.47 10.25L123.47 10.25Q123.92 11.34 124.11 11.64L124.11 11.64L124.11 11.64Q124.25 11.87 124.69 11.87L124.69 11.87L124.90 11.87L124.89 12.41L121.69 12.41L121.71 11.87L122.12 11.87L122.12 11.87Q122.74 11.87 122.74 11.70L122.74 11.70L122.74 11.70Q122.74 11.63 122.60 11.27L122.60 11.27L121.56 8.72L118.32 8.72L117.21 11.18L117.21 11.18Q117.07 11.50 117.07 11.63L117.07 11.63L117.07 11.63Q117.07 11.79 117.17 11.83L117.17 11.83L117.17 11.83Q117.26 11.87 117.65 11.87L117.65 11.87L118.22 11.87L118.22 12.41L115.50 12.41ZM120.00 4.79L118.58 8.10L121.32 8.10L120.00 4.79ZM132.64 3.64L132.63 3.08L134.80 3.08L140.54 10.48L140.54 4.14L140.54 4.14Q140.54 3.81 140.39 3.72L140.39 3.72L140.39 3.72Q140.23 3.64 139.77 3.64L139.77 3.64L139.28 3.64L139.31 3.08L142.29 3.08L142.29 3.64L141.97 3.64L141.97 3.64Q141.50 3.64 141.35 3.75L141.35 3.75L141.35 3.75Q141.20 3.86 141.20 4.25L141.20 4.25L141.20 12.32L141.20 12.47L141.20 12.47Q141.20 12.52 141.19 12.57L141.19 12.57L141.19 12.57Q141.18 12.61 141.14 12.64L141.14 12.64L141.14 12.64Q141.13 12.65 141.07 12.65L141.07 12.65L140.88 12.65L140.82 12.65L140.79 12.65L140.77 12.64L140.77 12.64Q140.74 12.64 140.72 12.63L140.72 12.63L140.72 12.63Q140.71 12.61 140.71 12.60L140.71 12.60L140.71 12.60Q140.71 12.58 140.70 12.57L140.70 12.57L140.70 12.57Q140.67 12.54 140.64 12.50L140.64 12.50L140.64 12.50Q140.63 12.48 140.61 12.45L140.61 12.45L140.61 12.45Q140.59 12.41 140.57 12.40L140.57 12.40L134.47 4.56L134.54 11.22L134.54 11.22Q134.54 11.67 134.70 11.77L134.70 11.77L134.70 11.77Q134.86 11.87 135.57 11.87L135.57 11.87L135.81 11.87L135.81 12.41L132.87 12.41L132.87 11.87L133.29 11.87L133.29 11.87Q133.67 11.87 133.78 11.76L133.78 11.76L133.78 11.76Q133.88 11.66 133.88 11.25L133.88 11.25L133.88 3.80L133.74 3.64L132.64 3.64ZM150.31 5.35L149.81 5.33L149.81 5.33Q149.93 4.17 150.01 3.08L150.01 3.08L158.09 3.08L158.09 3.08Q158.01 4.13 157.99 4.53L157.99 4.53L157.99 4.53Q157.94 5.26 157.92 5.32L157.92 5.32L157.42 5.30L157.42 5.30Q157.51 4.34 157.51 4.16L157.51 4.16L157.51 4.16Q157.51 3.88 157.36 3.79L157.36 3.79L157.36 3.79Q157.19 3.69 156.79 3.69L156.79 3.69L155.18 3.69L155.18 3.69Q154.68 3.69 154.55 3.79L154.55 3.79L154.55 3.79Q154.46 3.87 154.45 4.36L154.45 4.36L154.45 11.22L154.45 11.22Q154.45 11.66 154.59 11.76L154.59 11.76L154.59 11.76Q154.75 11.87 155.26 11.87L155.26 11.87L155.83 11.87L155.84 12.41L152.15 12.40L152.15 11.87L152.37 11.87L152.37 11.87Q153.04 11.87 153.18 11.79L153.18 11.79L153.18 11.79Q153.32 11.70 153.32 11.28L153.32 11.28L153.32 4.48L153.32 4.48Q153.32 3.92 153.22 3.80L153.22 3.80L153.22 3.80Q153.13 3.69 152.70 3.69L152.70 3.69L151.23 3.69L151.23 3.69Q151.05 3.69 150.98 3.71L150.98 3.71L150.98 3.71Q150.91 3.72 150.80 3.72L150.80 3.72L150.80 3.72Q150.77 3.72 150.66 3.79L150.66 3.79L150.66 3.79Q150.58 3.84 150.55 3.86L150.55 3.86L150.55 3.86Q150.52 3.88 150.48 3.99L150.48 3.99L150.48 3.99Q150.45 4.05 150.42 4.14L150.42 4.14L150.42 4.14Q150.40 4.21 150.38 4.36L150.38 4.36L150.38 4.36Q150.35 4.59 150.35 4.61L150.35 4.61L150.35 4.61Q150.35 4.80 150.34 4.95L150.34 4.95L150.34 4.95Q150.34 5.02 150.33 5.15L150.33 5.15L150.33 5.15Q150.32 5.29 150.31 5.35L150.31 5.35ZM165.85 12.41L165.83 11.87L166.00 11.87L166.00 11.87Q166.39 11.87 166.52 11.73L166.52 11.73L166.52 11.73Q166.65 11.57 166.98 10.83L166.98 10.83L167.89 8.82L168.46 7.53L168.46 7.53Q168.73 6.97 168.77 6.86L168.77 6.86L168.77 6.86Q168.84 6.70 168.89 6.60L168.89 6.60L168.89 6.60Q168.94 6.51 168.96 6.45L168.96 6.45L169.05 6.21L170.48 2.74L170.78 2.74L170.78 2.74Q171.63 4.98 173.82 10.25L173.82 10.25L173.82 10.25Q174.27 11.34 174.46 11.64L174.46 11.64L174.46 11.64Q174.60 11.87 175.03 11.87L175.03 11.87L175.25 11.87L175.23 12.41L172.04 12.41L172.05 11.87L172.47 11.87L172.47 11.87Q173.09 11.87 173.09 11.70L173.09 11.70L173.09 11.70Q173.09 11.63 172.95 11.27L172.95 11.27L171.91 8.72L168.66 8.72L167.56 11.18L167.56 11.18Q167.42 11.50 167.42 11.63L167.42 11.63L167.42 11.63Q167.42 11.79 167.51 11.83L167.51 11.83L167.51 11.83Q167.61 11.87 167.99 11.87L167.99 11.87L168.57 11.87L168.57 12.41L165.85 12.41ZM170.34 4.79L168.93 8.10L171.67 8.10L170.34 4.79ZM192.56 3.64L192.55 3.08L199.73 3.08L199.73 3.08Q199.75 4.14 199.80 5.28L199.80 5.28L199.25 5.30L199.25 5.30Q199.24 4.66 199.19 4.25L199.19 4.25L199.19 4.25Q199.14 3.89 199.09 3.80L199.09 3.80L199.09 3.80Q199.04 3.71 198.92 3.69L198.92 3.69L198.92 3.69Q198.82 3.68 198.24 3.68L198.24 3.68L195.86 3.68L195.86 3.68Q195.31 3.68 195.17 3.77L195.17 3.77L195.17 3.77Q195.04 3.86 195.04 4.33L195.04 4.33L195.04 6.28L195.04 6.28Q195.04 6.69 195.10 6.76L195.10 6.76L195.10 6.76Q195.17 6.84 195.50 6.84L195.50 6.84L197.62 6.84L197.62 6.84Q197.98 6.84 198.06 6.74L198.06 6.74L198.06 6.74Q198.15 6.64 198.15 6.17L198.15 6.17L198.15 5.63L198.67 5.63L198.67 8.97L198.15 8.97L198.15 8.26L198.15 8.26Q198.15 7.68 198.06 7.57L198.06 7.57L198.06 7.57Q197.98 7.46 197.65 7.46L197.65 7.46L195.55 7.46L195.55 7.46Q195.21 7.46 195.13 7.54L195.13 7.54L195.13 7.54Q195.04 7.63 195.04 7.89L195.04 7.89L195.04 11.20L195.04 11.20Q195.04 11.60 195.11 11.73L195.11 11.73L195.11 11.73Q195.19 11.87 195.46 11.87L195.46 11.87L196.40 11.87L196.40 12.41L192.80 12.41L192.80 11.87L193.21 11.87L193.21 11.87Q193.72 11.87 193.81 11.79L193.81 11.79L193.81 11.79Q193.91 11.70 193.91 11.33L193.91 11.33L193.91 4.24L193.91 4.24Q193.91 3.79 193.74 3.71L193.74 3.71L193.74 3.71Q193.60 3.64 192.56 3.64L192.56 3.64ZM208.23 7.83L208.23 7.83L208.23 7.83Q208.23 6.62 208.63 5.68L208.63 5.68L208.63 5.68Q209.05 4.72 209.74 4.12L209.74 4.12L209.74 4.12Q210.43 3.51 211.29 3.19L211.29 3.19L211.29 3.19Q212.13 2.88 213.08 2.88L213.08 2.88L213.08 2.88Q214.34 2.88 215.39 3.40L215.39 3.40L215.39 3.40Q216.47 3.93 217.18 5.07L217.18 5.07L217.18 5.07Q217.88 6.17 217.89 7.75L217.89 7.75L217.89 7.75Q217.89 8.70 217.58 9.54L217.58 9.54L217.58 9.54Q217.27 10.38 216.67 11.10L216.67 11.10L216.67 11.10Q216.06 11.81 215.13 12.22L215.13 12.22L215.13 12.22Q214.16 12.63 212.97 12.64L212.97 12.64L212.97 12.64Q211.84 12.64 210.90 12.23L210.90 12.23L210.90 12.23Q209.97 11.83 209.41 11.14L209.41 11.14L209.41 11.14Q208.83 10.45 208.54 9.60L208.54 9.60L208.54 9.60Q208.23 8.72 208.23 7.83ZM209.49 7.38L209.49 7.38L209.49 7.38Q209.49 8.52 209.92 9.60L209.92 9.60L209.92 9.60Q210.32 10.64 211.25 11.33L211.25 11.33L211.25 11.33Q212.16 12.03 213.35 12.04L213.35 12.04L213.35 12.04Q214.72 12.04 215.66 11.01L215.66 11.01L215.66 11.01Q216.61 9.97 216.61 8.10L216.61 8.10L216.61 8.10Q216.61 5.99 215.45 4.72L215.45 4.72L215.45 4.72Q214.30 3.46 212.79 3.45L212.79 3.45L212.79 3.45Q212.27 3.45 211.73 3.65L211.73 3.65L211.73 3.65Q211.18 3.85 210.68 4.25L210.68 4.25L210.68 4.25Q210.13 4.68 209.81 5.48L209.81 5.48L209.81 5.48Q209.49 6.27 209.49 7.38ZM226.02 3.64L226.00 3.08L228.18 3.08L233.91 10.48L233.91 4.14L233.91 4.14Q233.91 3.81 233.76 3.72L233.76 3.72L233.76 3.72Q233.60 3.64 233.15 3.64L233.15 3.64L232.65 3.64L232.68 3.08L235.66 3.08L235.66 3.64L235.34 3.64L235.34 3.64Q234.88 3.64 234.73 3.75L234.73 3.75L234.73 3.75Q234.58 3.86 234.58 4.25L234.58 4.25L234.58 12.32L234.58 12.47L234.58 12.47Q234.58 12.52 234.56 12.57L234.56 12.57L234.56 12.57Q234.55 12.61 234.51 12.64L234.51 12.64L234.51 12.64Q234.50 12.65 234.45 12.65L234.45 12.65L234.25 12.65L234.19 12.65L234.17 12.65L234.14 12.64L234.14 12.64Q234.11 12.64 234.10 12.63L234.10 12.63L234.10 12.63Q234.08 12.61 234.08 12.60L234.08 12.60L234.08 12.60Q234.08 12.58 234.07 12.57L234.07 12.57L234.07 12.57Q234.04 12.54 234.01 12.50L234.01 12.50L234.01 12.50Q234.00 12.48 233.98 12.45L233.98 12.45L233.98 12.45Q233.96 12.41 233.95 12.40L233.95 12.40L227.84 4.56L227.91 11.22L227.91 11.22Q227.91 11.67 228.07 11.77L228.07 11.77L228.07 11.77Q228.23 11.87 228.94 11.87L228.94 11.87L229.18 11.87L229.18 12.41L226.24 12.41L226.24 11.87L226.67 11.87L226.67 11.87Q227.04 11.87 227.15 11.76L227.15 11.76L227.15 11.76Q227.25 11.66 227.25 11.25L227.25 11.25L227.25 3.80L227.11 3.64L226.02 3.64ZM243.44 3.64L243.40 3.08L247.18 3.08L247.18 3.08Q248.50 3.08 249.37 3.19L249.37 3.19L249.37 3.19Q250.19 3.29 250.88 3.69L250.88 3.69L250.88 3.69Q251.83 4.27 252.33 5.24L252.33 5.24L252.33 5.24Q252.83 6.21 252.83 7.39L252.83 7.39L252.83 7.39Q252.83 8.05 252.68 8.65L252.68 8.65L252.68 8.65Q252.53 9.29 252.14 9.98L252.14 9.98L252.14 9.98Q251.71 10.73 251.15 11.21L251.15 11.21L251.15 11.21Q250.52 11.76 249.55 12.08L249.55 12.08L249.55 12.08Q248.54 12.41 247.27 12.41L247.27 12.41L243.65 12.41L243.64 11.87L244.02 11.87L244.02 11.87Q244.54 11.87 244.64 11.79L244.64 11.79L244.64 11.79Q244.75 11.70 244.75 11.25L244.75 11.25L244.75 4.14L244.75 4.14Q244.75 3.77 244.65 3.71L244.65 3.71L244.65 3.71Q244.54 3.64 244.03 3.64L244.03 3.64L243.44 3.64ZM245.88 4.39L245.88 11.22L245.88 11.22Q245.88 11.67 246.05 11.77L246.05 11.77L246.05 11.77Q246.20 11.87 247.07 11.87L247.07 11.87L247.07 11.87Q248.12 11.87 248.92 11.61L248.92 11.61L248.92 11.61Q249.77 11.35 250.21 10.99L250.21 10.99L250.21 10.99Q250.70 10.58 251.01 10.05L251.01 10.05L251.01 10.05Q251.31 9.52 251.44 8.96L251.44 8.96L251.44 8.96Q251.56 8.41 251.56 7.82L251.56 7.82L251.56 7.82Q251.56 7.03 251.30 6.34L251.30 6.34L251.30 6.34Q251.03 5.65 250.50 5.05L250.50 5.05L250.50 5.05Q249.97 4.46 249.06 4.09L249.06 4.09L249.06 4.09Q248.14 3.73 246.98 3.73L246.98 3.73L246.46 3.73L246.46 3.73Q246.09 3.73 245.99 3.85L245.99 3.85L245.99 3.85Q245.88 3.99 245.88 4.39L245.88 4.39ZM261.18 3.64L260.80 3.64L260.80 3.08L264.16 3.08L264.17 3.64L263.64 3.64L263.64 3.64Q263.21 3.64 263.05 3.73L263.05 3.73L263.05 3.73Q262.88 3.83 262.88 4.16L262.88 4.16L262.88 9.33L262.88 9.33Q262.88 9.63 262.92 9.78L262.92 9.78L262.92 9.78Q262.96 10.01 263.12 10.41L263.12 10.41L263.12 10.41Q263.29 10.80 263.59 11.09L263.59 11.09L263.59 11.09Q263.89 11.40 264.46 11.63L264.46 11.63L264.46 11.63Q265.03 11.85 265.81 11.85L265.81 11.85L265.81 11.85Q266.66 11.85 267.21 11.67L267.21 11.67L267.21 11.67Q267.77 11.48 268.08 11.22L268.08 11.22L268.08 11.22Q268.39 10.96 268.53 10.49L268.53 10.49L268.53 10.49Q268.70 9.95 268.71 9.66L268.71 9.66L268.71 9.66Q268.73 9.18 268.74 8.67L268.74 8.67L268.74 4.14L268.74 4.14Q268.74 3.81 268.60 3.72L268.60 3.72L268.60 3.72Q268.45 3.64 267.97 3.64L267.97 3.64L267.48 3.64L267.50 3.08L270.14 3.08L270.14 3.64L269.94 3.64L269.94 3.64Q269.62 3.64 269.51 3.75L269.51 3.75L269.51 3.75Q269.40 3.86 269.40 4.25L269.40 4.25L269.40 9.22L269.40 9.22Q269.40 12.67 265.81 12.67L265.81 12.67L265.81 12.67Q263.64 12.67 262.69 11.76L262.69 11.76L262.69 11.76Q261.75 10.86 261.75 9.41L261.75 9.41L261.75 4.14L261.75 4.14Q261.75 3.81 261.65 3.72L261.65 3.72L261.65 3.72Q261.54 3.64 261.18 3.64L261.18 3.64ZM278.21 3.64L277.82 3.64L277.83 3.08L281.05 3.08L281.05 3.08Q282.19 3.08 282.79 3.21L282.79 3.21L282.79 3.21Q283.43 3.37 283.90 3.75L283.90 3.75L283.90 3.75Q284.90 4.57 284.90 5.71L284.90 5.71L284.90 5.71Q284.90 6.43 284.43 7.04L284.43 7.04L284.43 7.04Q283.94 7.66 282.91 7.92L282.91 7.92L285.59 11.49L285.59 11.49Q285.90 11.87 286.19 11.87L286.19 11.87L286.79 11.87L286.82 12.41L284.79 12.41L281.80 8.10L281.63 8.10L281.63 8.10Q281.59 8.10 281.53 8.11L281.53 8.11L281.53 8.11Q281.48 8.11 281.46 8.11L281.46 8.11L281.46 8.11Q280.58 8.11 280.18 8.03L280.18 8.03L280.18 11.46L280.18 11.46Q280.18 11.76 280.33 11.81L280.33 11.81L280.33 11.81Q280.45 11.87 281.16 11.87L281.16 11.87L281.87 11.87L281.84 12.41L278.11 12.41L278.11 11.87L278.43 11.87L278.43 11.87Q278.90 11.87 278.97 11.81L278.97 11.81L278.97 11.81Q279.05 11.74 279.05 11.46L279.05 11.46L279.05 4.14L279.05 4.14Q279.05 3.82 278.86 3.73L278.86 3.73L278.86 3.73Q278.63 3.64 278.21 3.64L278.21 3.64ZM280.18 4.28L280.18 7.57L280.18 7.57Q280.37 7.70 281.08 7.71L281.08 7.71L281.08 7.71Q282.35 7.71 282.93 7.27L282.93 7.27L282.93 7.27Q283.52 6.84 283.52 5.92L283.52 5.92L283.52 5.92Q283.52 4.92 282.75 4.27L282.75 4.27L282.75 4.27Q281.99 3.64 280.61 3.64L280.61 3.64L280.61 3.64Q280.36 3.64 280.27 3.75L280.27 3.75L280.27 3.75Q280.19 3.84 280.18 4.28L280.18 4.28ZM295.16 3.64L294.57 3.64L294.59 3.08L298.10 3.08L298.10 3.64L297.87 3.64L297.87 3.64Q297.32 3.64 297.15 3.73L297.15 3.73L297.15 3.73Q297.01 3.81 297.01 4.28L297.01 4.28L297.01 11.22L297.01 11.22Q297.01 11.68 297.12 11.77L297.12 11.77L297.12 11.77Q297.23 11.87 297.77 11.87L297.77 11.87L298.31 11.87L298.33 12.41L294.75 12.41L294.73 11.87L295.09 11.87L295.09 11.87Q295.65 11.87 295.77 11.77L295.77 11.77L295.77 11.77Q295.88 11.67 295.88 11.25L295.88 11.25L295.88 4.14L295.88 4.14Q295.88 3.77 295.78 3.71L295.78 3.71L295.78 3.71Q295.67 3.64 295.16 3.64L295.16 3.64ZM315.65 3.64L315.64 3.08L317.81 3.08L323.54 10.48L323.54 4.14L323.54 4.14Q323.54 3.81 323.39 3.72L323.39 3.72L323.39 3.72Q323.24 3.64 322.78 3.64L322.78 3.64L322.29 3.64L322.31 3.08L325.29 3.08L325.29 3.64L324.97 3.64L324.97 3.64Q324.51 3.64 324.36 3.75L324.36 3.75L324.36 3.75Q324.21 3.86 324.21 4.25L324.21 4.25L324.21 12.32L324.21 12.47L324.21 12.47Q324.21 12.52 324.19 12.57L324.19 12.57L324.19 12.57Q324.18 12.61 324.15 12.64L324.15 12.64L324.15 12.64Q324.13 12.65 324.08 12.65L324.08 12.65L323.89 12.65L323.83 12.65L323.80 12.65L323.77 12.64L323.77 12.64Q323.74 12.64 323.73 12.63L323.73 12.63L323.73 12.63Q323.72 12.61 323.72 12.60L323.72 12.60L323.72 12.60Q323.72 12.58 323.70 12.57L323.70 12.57L323.70 12.57Q323.67 12.54 323.65 12.50L323.65 12.50L323.65 12.50Q323.63 12.48 323.61 12.45L323.61 12.45L323.61 12.45Q323.59 12.41 323.58 12.40L323.58 12.40L317.47 4.56L317.54 11.22L317.54 11.22Q317.54 11.67 317.71 11.77L317.71 11.77L317.71 11.77Q317.86 11.87 318.58 11.87L318.58 11.87L318.81 11.87L318.81 12.41L315.88 12.41L315.88 11.87L316.30 11.87L316.30 11.87Q316.67 11.87 316.78 11.76L316.78 11.76L316.78 11.76Q316.88 11.66 316.89 11.25L316.89 11.25L316.89 3.80L316.74 3.64L315.65 3.64ZM333.05 3.64L333.03 3.08L340.25 3.08L340.25 3.08Q340.26 4.14 340.31 5.28L340.31 5.28L339.77 5.30L339.77 5.30Q339.75 4.66 339.70 4.25L339.70 4.25L339.70 4.25Q339.66 3.89 339.60 3.80L339.60 3.80L339.60 3.80Q339.55 3.71 339.43 3.69L339.43 3.69L339.43 3.69Q339.34 3.68 338.75 3.68L338.75 3.68L336.37 3.68L336.37 3.68Q335.82 3.68 335.68 3.77L335.68 3.77L335.68 3.77Q335.56 3.86 335.56 4.33L335.56 4.33L335.56 6.28L335.56 6.28Q335.56 6.69 335.61 6.76L335.61 6.76L335.61 6.76Q335.68 6.84 336.02 6.84L336.02 6.84L338.13 6.84L338.13 6.84Q338.50 6.84 338.58 6.73L338.58 6.73L338.58 6.73Q338.66 6.63 338.67 6.14L338.67 6.14L338.67 5.61L339.18 5.63L339.18 8.97L338.67 8.97L338.67 8.24L338.67 8.24Q338.67 7.66 338.59 7.57L338.59 7.57L338.59 7.57Q338.51 7.46 338.16 7.46L338.16 7.46L336.06 7.46L336.06 7.46Q335.73 7.46 335.64 7.54L335.64 7.54L335.64 7.54Q335.56 7.63 335.56 7.89L335.56 7.89L335.56 11.20L335.56 11.20Q335.56 11.57 335.64 11.67L335.64 11.67L335.64 11.67Q335.73 11.77 336 11.77L336 11.77L336 11.77Q338.92 11.75 339.45 11.69L339.45 11.69L339.45 11.69Q339.96 11.63 340.05 11.38L340.05 11.38L340.05 11.36L340.06 11.35L340.29 10.17L340.76 10.25L340.42 12.41L333.31 12.41L333.31 11.87L333.68 11.87L333.68 11.87Q334.24 11.87 334.33 11.80L334.33 11.80L334.33 11.80Q334.42 11.72 334.42 11.33L334.42 11.33L334.42 4.24L334.42 4.24Q334.42 3.82 334.27 3.73L334.27 3.73L334.27 3.73Q334.10 3.64 333.44 3.64L333.44 3.64L333.05 3.64ZM348.97 3.64L348.58 3.64L348.60 3.08L351.82 3.08L351.82 3.08Q352.95 3.08 353.55 3.21L353.55 3.21L353.55 3.21Q354.20 3.37 354.66 3.75L354.66 3.75L354.66 3.75Q355.67 4.57 355.67 5.71L355.67 5.71L355.67 5.71Q355.67 6.43 355.20 7.04L355.20 7.04L355.20 7.04Q354.70 7.66 353.67 7.92L353.67 7.92L356.36 11.49L356.36 11.49Q356.67 11.87 356.96 11.87L356.96 11.87L357.56 11.87L357.59 12.41L355.56 12.41L352.56 8.10L352.39 8.10L352.39 8.10Q352.35 8.10 352.30 8.11L352.30 8.11L352.30 8.11Q352.24 8.11 352.23 8.11L352.23 8.11L352.23 8.11Q351.35 8.11 350.95 8.03L350.95 8.03L350.95 11.46L350.95 11.46Q350.95 11.76 351.09 11.81L351.09 11.81L351.09 11.81Q351.22 11.87 351.92 11.87L351.92 11.87L352.63 11.87L352.60 12.41L348.88 12.41L348.88 11.87L349.20 11.87L349.20 11.87Q349.67 11.87 349.73 11.81L349.73 11.81L349.73 11.81Q349.82 11.74 349.82 11.46L349.82 11.46L349.82 4.14L349.82 4.14Q349.82 3.82 349.62 3.73L349.62 3.73L349.62 3.73Q349.40 3.64 348.97 3.64L348.97 3.64ZM350.95 4.28L350.95 7.57L350.95 7.57Q351.13 7.70 351.85 7.71L351.85 7.71L351.85 7.71Q353.12 7.71 353.70 7.27L353.70 7.27L353.70 7.27Q354.29 6.84 354.29 5.92L354.29 5.92L354.29 5.92Q354.29 4.92 353.51 4.27L353.51 4.27L353.51 4.27Q352.75 3.64 351.37 3.64L351.37 3.64L351.37 3.64Q351.12 3.64 351.04 3.75L351.04 3.75L351.04 3.75Q350.96 3.84 350.95 4.28L350.95 4.28ZM365.35 12.41L365.34 11.87L365.51 11.87L365.51 11.87Q365.90 11.87 366.03 11.73L366.03 11.73L366.03 11.73Q366.15 11.57 366.49 10.83L366.49 10.83L367.40 8.82L367.97 7.53L367.97 7.53Q368.24 6.97 368.28 6.86L368.28 6.86L368.28 6.86Q368.35 6.70 368.40 6.60L368.40 6.60L368.40 6.60Q368.45 6.51 368.46 6.45L368.46 6.45L368.56 6.21L369.99 2.74L370.28 2.74L370.28 2.74Q371.14 4.98 373.32 10.25L373.32 10.25L373.32 10.25Q373.78 11.34 373.97 11.64L373.97 11.64L373.97 11.64Q374.10 11.87 374.54 11.87L374.54 11.87L374.75 11.87L374.74 12.41L371.55 12.41L371.56 11.87L371.98 11.87L371.98 11.87Q372.59 11.87 372.59 11.70L372.59 11.70L372.59 11.70Q372.59 11.63 372.46 11.27L372.46 11.27L371.42 8.72L368.17 8.72L367.06 11.18L367.06 11.18Q366.93 11.50 366.93 11.63L366.93 11.63L366.93 11.63Q366.93 11.79 367.02 11.83L367.02 11.83L367.02 11.83Q367.12 11.87 367.50 11.87L367.50 11.87L368.07 11.87L368.07 12.41L365.35 12.41ZM369.85 4.79L368.44 8.10L371.18 8.10L369.85 4.79ZM385.65 12.41L382.63 12.41L382.63 11.87L382.76 11.87L382.76 11.87Q383.35 11.87 383.47 11.77L383.47 11.77L383.47 11.77Q383.59 11.68 383.61 11.21L383.61 11.21L383.74 4.38L383.74 4.38Q383.74 4.35 383.74 4.28L383.74 4.28L383.74 4.28Q383.75 4.21 383.75 4.17L383.75 4.17L383.75 4.01L383.75 4.01Q383.75 3.76 383.67 3.71L383.67 3.71L383.67 3.71Q383.58 3.64 383.35 3.64L383.35 3.64L382.64 3.64L382.63 3.08L384.74 3.08L387.93 10.55L391.07 3.08L393.31 3.08L393.31 3.64L392.83 3.64L392.83 3.64Q392.38 3.64 392.26 3.71L392.26 3.71L392.26 3.71Q392.10 3.79 392.10 4.08L392.10 4.08L392.10 11.22L392.10 11.22Q392.10 11.68 392.22 11.77L392.22 11.77L392.22 11.77Q392.33 11.87 392.96 11.87L392.96 11.87L393.24 11.87L393.25 12.41L389.85 12.41L389.83 11.87L390.11 11.87L390.11 11.87Q390.73 11.87 390.84 11.77L390.84 11.77L390.84 11.77Q390.97 11.66 390.97 11.25L390.97 11.25L390.97 4.83L388.81 9.91L387.96 12.02L387.96 12.02Q387.82 12.37 387.78 12.44L387.78 12.44L387.78 12.44Q387.73 12.51 387.67 12.51L387.67 12.51L387.67 12.51Q387.57 12.51 387.12 11.52L387.12 11.52L384.31 5.01L384.25 11.39L384.25 11.39Q384.25 11.74 384.45 11.80L384.45 11.80L384.45 11.80Q384.69 11.87 385.65 11.87L385.65 11.87L385.65 12.41ZM401.37 3.64L400.98 3.64L401.00 3.08L404.10 3.08L404.10 3.08Q405.84 3.08 406.62 3.75L406.62 3.75L406.62 3.75Q407.39 4.42 407.39 5.37L407.39 5.37L407.39 5.37Q407.39 6.08 406.85 6.60L406.85 6.60L406.85 6.60Q406.29 7.14 405.60 7.35L405.60 7.35L405.60 7.35Q406.68 7.57 407.21 8.34L407.21 8.34L407.21 8.34Q407.73 9.08 407.72 10.01L407.72 10.01L407.72 10.01Q407.72 11.01 407.09 11.59L407.09 11.59L407.09 11.59Q406.49 12.13 405.54 12.28L405.54 12.28L405.54 12.28Q404.62 12.41 403.07 12.41L403.07 12.41L401.09 12.41L401.09 11.87L401.51 11.87L401.51 11.87Q401.87 11.87 401.98 11.80L401.98 11.80L401.98 11.80Q402.10 11.73 402.10 11.46L402.10 11.46L402.10 4.14L402.10 4.14Q402.10 3.81 401.95 3.72L401.95 3.72L401.95 3.72Q401.81 3.64 401.37 3.64L401.37 3.64ZM403.20 7.59L403.20 7.59L403.23 11.35L403.23 11.35Q403.23 11.63 403.40 11.71L403.40 11.71L403.40 11.71Q403.57 11.80 404.14 11.80L404.14 11.80L404.14 11.80Q406.40 11.80 406.40 9.91L406.40 9.91L406.40 9.91Q406.40 9.22 406.08 8.73L406.08 8.73L406.08 8.73Q405.76 8.24 405.23 8.02L405.23 8.02L405.23 8.02Q404.65 7.75 404.21 7.68L404.21 7.68L404.21 7.68Q403.73 7.59 403.20 7.59ZM403.23 4.01L403.23 7.19L404.61 7.19L404.61 7.19Q405.26 7.19 405.68 6.66L405.68 6.66L405.68 6.66Q406.08 6.15 406.09 5.54L406.09 5.54L406.09 5.54Q406.09 4.85 405.50 4.27L405.50 4.27L405.50 4.27Q404.93 3.69 403.65 3.69L403.65 3.69L403.65 3.69Q403.23 3.69 403.23 4.01L403.23 4.01ZM416.15 3.64L415.77 3.64L415.77 3.08L419.13 3.08L419.15 3.64L418.61 3.64L418.61 3.64Q418.18 3.64 418.02 3.73L418.02 3.73L418.02 3.73Q417.85 3.83 417.85 4.16L417.85 4.16L417.85 9.33L417.85 9.33Q417.85 9.63 417.89 9.78L417.89 9.78L417.89 9.78Q417.93 10.01 418.09 10.41L418.09 10.41L418.09 10.41Q418.26 10.80 418.56 11.09L418.56 11.09L418.56 11.09Q418.87 11.40 419.43 11.63L419.43 11.63L419.43 11.63Q420 11.85 420.78 11.85L420.78 11.85L420.78 11.85Q421.63 11.85 422.18 11.67L422.18 11.67L422.18 11.67Q422.74 11.48 423.05 11.22L423.05 11.22L423.05 11.22Q423.36 10.96 423.50 10.49L423.50 10.49L423.50 10.49Q423.67 9.95 423.68 9.66L423.68 9.66L423.68 9.66Q423.71 9.18 423.71 8.67L423.71 8.67L423.71 4.14L423.71 4.14Q423.71 3.81 423.57 3.72L423.57 3.72L423.57 3.72Q423.42 3.64 422.94 3.64L422.94 3.64L422.45 3.64L422.47 3.08L425.11 3.08L425.11 3.64L424.92 3.64L424.92 3.64Q424.59 3.64 424.48 3.75L424.48 3.75L424.48 3.75Q424.37 3.86 424.37 4.25L424.37 4.25L424.37 9.22L424.37 9.22Q424.37 12.67 420.78 12.67L420.78 12.67L420.78 12.67Q418.61 12.67 417.66 11.76L417.66 11.76L417.66 11.76Q416.73 10.86 416.73 9.41L416.73 9.41L416.73 4.14L416.73 4.14Q416.73 3.81 416.62 3.72L416.62 3.72L416.62 3.72Q416.51 3.64 416.15 3.64L416.15 3.64ZM433.18 3.64L432.79 3.64L432.80 3.08L436.02 3.08L436.02 3.08Q437.16 3.08 437.76 3.21L437.76 3.21L437.76 3.21Q438.40 3.37 438.87 3.75L438.87 3.75L438.87 3.75Q439.87 4.57 439.87 5.71L439.87 5.71L439.87 5.71Q439.87 6.43 439.40 7.04L439.40 7.04L439.40 7.04Q438.91 7.66 437.88 7.92L437.88 7.92L440.56 11.49L440.56 11.49Q440.87 11.87 441.16 11.87L441.16 11.87L441.77 11.87L441.79 12.41L439.76 12.41L436.77 8.10L436.60 8.10L436.60 8.10Q436.56 8.10 436.50 8.11L436.50 8.11L436.50 8.11Q436.45 8.11 436.43 8.11L436.43 8.11L436.43 8.11Q435.55 8.11 435.16 8.03L435.16 8.03L435.16 11.46L435.16 11.46Q435.16 11.76 435.30 11.81L435.30 11.81L435.30 11.81Q435.42 11.87 436.13 11.87L436.13 11.87L436.84 11.87L436.81 12.41L433.08 12.41L433.08 11.87L433.41 11.87L433.41 11.87Q433.87 11.87 433.94 11.81L433.94 11.81L433.94 11.81Q434.02 11.74 434.02 11.46L434.02 11.46L434.02 4.14L434.02 4.14Q434.02 3.82 433.83 3.73L433.83 3.73L433.83 3.73Q433.60 3.64 433.18 3.64L433.18 3.64ZM435.16 4.28L435.16 7.57L435.16 7.57Q435.34 7.70 436.05 7.71L436.05 7.71L436.05 7.71Q437.32 7.71 437.90 7.27L437.90 7.27L437.90 7.27Q438.49 6.84 438.49 5.92L438.49 5.92L438.49 5.92Q438.49 4.92 437.72 4.27L437.72 4.27L437.72 4.27Q436.96 3.64 435.58 3.64L435.58 3.64L435.58 3.64Q435.33 3.64 435.24 3.75L435.24 3.75L435.24 3.75Q435.16 3.84 435.16 4.28L435.16 4.28ZM449.52 10.04L449.52 10.04L450.01 9.98L450.19 10.85L450.19 10.85Q450.30 11.33 450.37 11.41L450.37 11.41L450.37 11.41Q450.44 11.49 450.85 11.64L450.85 11.64L450.85 11.64Q451.69 11.95 452.59 11.95L452.59 11.95L452.59 11.95Q453.37 11.95 453.91 11.49L453.91 11.49L453.91 11.49Q454.45 11.04 454.45 10.26L454.45 10.26L454.45 10.26Q454.45 9.65 453.99 9.21L453.99 9.21L453.99 9.21Q453.51 8.76 452.66 8.30L452.66 8.30L452.08 7.98L452.08 7.98Q451.34 7.55 451.10 7.36L451.10 7.36L451.10 7.36Q450.74 7.08 450.43 6.59L450.43 6.59L450.43 6.59Q450.12 6.10 450.12 5.46L450.12 5.46L450.12 5.46Q450.12 4.39 450.96 3.68L450.96 3.68L450.96 3.68Q451.80 2.97 452.91 2.97L452.91 2.97L452.91 2.97Q453.19 2.97 453.54 3.04L453.54 3.04L453.54 3.04Q453.74 3.08 454.07 3.17L454.07 3.17L454.31 3.25L454.31 3.25Q454.41 3.25 454.45 3.16L454.45 3.16L454.45 3.16Q454.50 3.05 454.50 2.98L454.50 2.98L454.51 2.88L454.99 2.85L455.21 5.41L454.70 5.43L454.58 4.18L454.58 4.18Q453.83 3.62 452.67 3.62L452.67 3.62L452.67 3.62Q452.03 3.62 451.52 4.05L451.52 4.05L451.52 4.05Q451.04 4.47 451.04 5.12L451.04 5.12L451.04 5.12Q451.04 5.72 451.49 6.17L451.49 6.17L451.49 6.17Q451.92 6.60 452.79 7.08L452.79 7.08L453.56 7.50L453.56 7.50Q454.51 8.03 455.05 8.59L455.05 8.59L455.05 8.59Q455.58 9.15 455.58 9.92L455.58 9.92L455.58 9.92Q455.58 10.99 454.73 11.76L454.73 11.76L454.73 11.76Q453.86 12.54 452.40 12.54L452.40 12.54L452.40 12.54Q451.84 12.54 451.34 12.41L451.34 12.41L451.34 12.41Q450.84 12.29 450.78 12.29L450.78 12.29L450.78 12.29Q450.53 12.29 450.53 12.58L450.53 12.58L450.54 12.76L450.06 12.80L450.06 12.80Q450.00 12.41 449.52 10.04ZM463.78 12.41L463.76 11.87L463.93 11.87L463.93 11.87Q464.32 11.87 464.45 11.73L464.45 11.73L464.45 11.73Q464.58 11.57 464.91 10.83L464.91 10.83L465.82 8.82L466.40 7.53L466.40 7.53Q466.66 6.97 466.70 6.86L466.70 6.86L466.70 6.86Q466.77 6.70 466.82 6.60L466.82 6.60L466.82 6.60Q466.87 6.51 466.89 6.45L466.89 6.45L466.98 6.21L468.41 2.74L468.71 2.74L468.71 2.74Q469.56 4.98 471.75 10.25L471.75 10.25L471.75 10.25Q472.20 11.34 472.39 11.64L472.39 11.64L472.39 11.64Q472.53 11.87 472.96 11.87L472.96 11.87L473.18 11.87L473.16 12.41L469.97 12.41L469.98 11.87L470.40 11.87L470.40 11.87Q471.02 11.87 471.02 11.70L471.02 11.70L471.02 11.70Q471.02 11.63 470.88 11.27L470.88 11.27L469.84 8.72L466.59 8.72L465.49 11.18L465.49 11.18Q465.35 11.50 465.35 11.63L465.35 11.63L465.35 11.63Q465.35 11.79 465.45 11.83L465.45 11.83L465.45 11.83Q465.54 11.87 465.92 11.87L465.92 11.87L466.50 11.87L466.50 12.41L463.78 12.41ZM468.28 4.79L466.86 8.10L469.60 8.10L468.28 4.79ZM481.30 3.64L480.91 3.64L480.94 3.08L484.03 3.08L484.03 3.08Q485.78 3.08 486.55 3.75L486.55 3.75L486.55 3.75Q487.33 4.42 487.32 5.37L487.32 5.37L487.32 5.37Q487.32 6.08 486.79 6.60L486.79 6.60L486.79 6.60Q486.23 7.14 485.53 7.35L485.53 7.35L485.53 7.35Q486.61 7.57 487.14 8.34L487.14 8.34L487.14 8.34Q487.66 9.08 487.66 10.01L487.66 10.01L487.66 10.01Q487.66 11.01 487.03 11.59L487.03 11.59L487.03 11.59Q486.42 12.13 485.47 12.28L485.47 12.28L485.47 12.28Q484.55 12.41 483.01 12.41L483.01 12.41L481.02 12.41L481.02 11.87L481.44 11.87L481.44 11.87Q481.80 11.87 481.92 11.80L481.92 11.80L481.92 11.80Q482.03 11.73 482.03 11.46L482.03 11.46L482.03 4.14L482.03 4.14Q482.03 3.81 481.88 3.72L481.88 3.72L481.88 3.72Q481.74 3.64 481.30 3.64L481.30 3.64ZM483.14 7.59L483.14 7.59L483.16 11.35L483.16 11.35Q483.16 11.63 483.33 11.71L483.33 11.71L483.33 11.71Q483.50 11.80 484.07 11.80L484.07 11.80L484.07 11.80Q486.33 11.80 486.33 9.91L486.33 9.91L486.33 9.91Q486.33 9.22 486.01 8.73L486.01 8.73L486.01 8.73Q485.69 8.24 485.17 8.02L485.17 8.02L485.17 8.02Q484.58 7.75 484.14 7.68L484.14 7.68L484.14 7.68Q483.66 7.59 483.14 7.59ZM483.16 4.01L483.16 7.19L484.54 7.19L484.54 7.19Q485.19 7.19 485.61 6.66L485.61 6.66L485.61 6.66Q486.01 6.15 486.02 5.54L486.02 5.54L486.02 5.54Q486.02 4.85 485.43 4.27L485.43 4.27L485.43 4.27Q484.86 3.69 483.58 3.69L483.58 3.69L483.58 3.69Q483.16 3.69 483.16 4.01L483.16 4.01ZM496.29 3.64L495.70 3.64L495.71 3.08L499.23 3.08L499.23 3.64L499.00 3.64L499.00 3.64Q498.45 3.64 498.28 3.73L498.28 3.73L498.28 3.73Q498.14 3.81 498.14 4.28L498.14 4.28L498.14 11.22L498.14 11.22Q498.14 11.68 498.25 11.77L498.25 11.77L498.25 11.77Q498.36 11.87 498.89 11.87L498.89 11.87L499.44 11.87L499.45 12.41L495.87 12.41L495.86 11.87L496.22 11.87L496.22 11.87Q496.78 11.87 496.89 11.77L496.89 11.77L496.89 11.77Q497.01 11.67 497.01 11.25L497.01 11.25L497.01 4.14L497.01 4.14Q497.01 3.77 496.90 3.71L496.90 3.71L496.90 3.71Q496.79 3.64 496.29 3.64L496.29 3.64ZM507.68 3.64L507.19 3.64L507.21 3.08L510.79 3.08L510.79 3.64L510.16 3.64L510.16 3.64Q509.78 3.64 509.67 3.72L509.67 3.72L509.67 3.72Q509.56 3.80 509.56 4.16L509.56 4.16L509.56 11.22L509.56 11.22Q509.56 11.57 509.64 11.67L509.64 11.67L509.64 11.67Q509.73 11.77 510.02 11.77L510.02 11.77L510.02 11.77Q512.89 11.74 513.55 11.63L513.55 11.63L513.55 11.63Q513.76 11.61 513.84 11.39L513.84 11.39L513.84 11.39Q513.93 11.17 514.12 10.05L514.12 10.05L514.62 10.08L514.15 12.41L507.39 12.41L507.38 11.87L507.77 11.87L507.77 11.87Q508.27 11.87 508.34 11.80L508.34 11.80L508.34 11.80Q508.42 11.72 508.43 11.33L508.43 11.33L508.43 4.09L508.43 4.09Q508.43 3.80 508.27 3.72L508.27 3.72L508.27 3.72Q508.12 3.64 507.68 3.64L507.68 3.64ZM522.36 3.64L522.35 3.08L529.56 3.08L529.56 3.08Q529.57 4.14 529.63 5.28L529.63 5.28L529.08 5.30L529.08 5.30Q529.07 4.66 529.01 4.25L529.01 4.25L529.01 4.25Q528.97 3.89 528.92 3.80L528.92 3.80L528.92 3.80Q528.86 3.71 528.75 3.69L528.75 3.69L528.75 3.69Q528.65 3.68 528.06 3.68L528.06 3.68L525.68 3.68L525.68 3.68Q525.14 3.68 524.99 3.77L524.99 3.77L524.99 3.77Q524.87 3.86 524.87 4.33L524.87 4.33L524.87 6.28L524.87 6.28Q524.87 6.69 524.92 6.76L524.92 6.76L524.92 6.76Q524.99 6.84 525.33 6.84L525.33 6.84L527.45 6.84L527.45 6.84Q527.81 6.84 527.89 6.73L527.89 6.73L527.89 6.73Q527.97 6.63 527.98 6.14L527.98 6.14L527.98 5.61L528.49 5.63L528.49 8.97L527.98 8.97L527.98 8.24L527.98 8.24Q527.98 7.66 527.91 7.57L527.91 7.57L527.91 7.57Q527.82 7.46 527.47 7.46L527.47 7.46L525.38 7.46L525.38 7.46Q525.04 7.46 524.96 7.54L524.96 7.54L524.96 7.54Q524.87 7.63 524.87 7.89L524.87 7.89L524.87 11.20L524.87 11.20Q524.87 11.57 524.96 11.67L524.96 11.67L524.96 11.67Q525.04 11.77 525.31 11.77L525.31 11.77L525.31 11.77Q528.23 11.75 528.76 11.69L528.76 11.69L528.76 11.69Q529.28 11.63 529.36 11.38L529.36 11.38L529.37 11.36L529.38 11.35L529.60 10.17L530.08 10.25L529.73 12.41L522.63 12.41L522.63 11.87L523.00 11.87L523.00 11.87Q523.56 11.87 523.64 11.80L523.64 11.80L523.64 11.80Q523.74 11.72 523.74 11.33L523.74 11.33L523.74 4.24L523.74 4.24Q523.74 3.82 523.58 3.73L523.58 3.73L523.58 3.73Q523.41 3.64 522.76 3.64L522.76 3.64L522.36 3.64Z"></path></g></svg>