<svg data-v-423bf9ae="" xmlns="http://www.w3.org/2000/svg" viewBox="0 0 242.65979575441884 60" class="font"><!----><!----><!----><g data-v-423bf9ae="" id="a321edad-37aa-4f03-8812-3392a88e0c34" fill="white" transform="matrix(6.185567131938485,0,0,6.185567131938485,1.6701065033898885,-21.092784689240297)"><path d="M7.95 12.97L7.95 12.97L4.77 12.97L4.77 12.97Q4.24 8.72 3.42 5.59L3.42 5.59L3.42 5.59Q3.82 4.79 4.10 4.12L4.10 4.12L4.10 4.12Q4.15 4.01 4.35 3.84L4.35 3.84L4.35 3.84Q4.55 3.67 4.70 3.67L4.70 3.67L6.87 3.67L6.87 3.67Q7.15 5.74 7.63 8.27L7.63 8.27L7.63 8.27Q8.10 10.80 8.55 12.52L8.55 12.52L8.55 12.52Q8.55 12.61 8.33 12.79L8.33 12.79L8.33 12.79Q8.11 12.97 7.95 12.97ZM2.49 11.55L2.49 11.76L2.51 12.52L2.51 12.52Q2.51 12.61 2.29 12.79L2.29 12.79L2.29 12.79Q2.06 12.97 1.91 12.97L1.91 12.97L-0.27 12.97L-0.27 12.97Q0.81 11.14 3.08 6.26L3.08 6.26L3.08 6.26Q3.14 6.44 3.14 6.76L3.14 6.76L3.14 6.76Q3.14 7.08 3.05 7.68L3.05 7.68L3.05 7.68Q2.95 8.28 2.81 9.10L2.81 9.10L2.81 9.10Q2.67 9.91 2.60 10.42L2.60 10.42L2.60 10.42Q3.58 10.57 4.03 10.75L4.03 10.75L4.03 10.75Q4.03 11.16 3.89 11.36L3.89 11.36L3.89 11.36Q3.18 11.42 2.49 11.55L2.49 11.55ZM17.96 12.52L17.96 12.52L17.96 12.52Q17.96 12.61 17.75 12.79L17.75 12.79L17.75 12.79Q17.53 12.97 17.37 12.97L17.37 12.97L15.61 12.97L15.61 12.97Q14.83 11.57 13.55 9.78L13.55 9.78L13.55 9.78Q12.26 7.99 11.20 6.78L11.20 6.78L11.20 6.78Q11.29 6.05 11.47 4.12L11.47 4.12L11.47 4.12Q11.49 4.02 11.71 3.85L11.71 3.85L11.71 3.85Q11.92 3.67 12.07 3.67L12.07 3.67L13.85 3.67L13.85 3.67Q14.76 5.27 15.79 6.70L15.79 6.70L15.79 6.70Q16.83 8.13 18.21 9.82L18.21 9.82L18.21 9.82Q18.03 11.46 17.96 12.52ZM17.85 8.62L17.85 8.62L17.85 8.62Q17.52 6.93 17.25 5.96L17.25 5.96L17.25 5.96Q16.98 5.00 16.52 4.12L16.52 4.12L16.52 4.12Q16.52 4.03 16.74 3.85L16.74 3.85L16.74 3.85Q16.97 3.67 17.13 3.67L17.13 3.67L19.30 3.67L19.30 3.67Q18.85 5.65 18.45 8.16L18.45 8.16L18.45 8.16Q18.45 8.26 18.23 8.44L18.23 8.44L18.23 8.44Q18.01 8.62 17.85 8.62ZM11.57 8.11L11.57 8.11L11.57 8.11Q11.74 9.55 12.05 10.52L12.05 10.52L12.05 10.52Q12.36 11.48 12.91 12.52L12.91 12.52L12.91 12.52Q12.91 12.61 12.69 12.79L12.69 12.79L12.69 12.79Q12.47 12.97 12.30 12.97L12.30 12.97L10.13 12.97L10.13 12.97Q10.59 10.99 10.96 8.57L10.96 8.57L10.96 8.57Q10.96 8.48 11.19 8.30L11.19 8.30L11.19 8.30Q11.41 8.11 11.57 8.11ZM25.74 12.97L25.74 12.97L22.56 12.97L22.56 12.97Q23.56 9.34 23.99 4.12L23.99 4.12L23.99 4.12Q23.99 4.03 24.21 3.85L24.21 3.85L24.21 3.85Q24.43 3.67 24.58 3.67L24.58 3.67L27.63 3.67L27.63 3.67Q26.75 7.38 26.35 12.52L26.35 12.52L26.35 12.52Q26.35 12.61 26.13 12.79L26.13 12.79L26.13 12.79Q25.91 12.97 25.74 12.97ZM28.94 7.95L28.94 7.95L28.94 7.95Q28.94 7.01 28.65 5.87L28.65 5.87L28.65 5.87Q28.35 4.73 28.01 4.22L28.01 4.22L28.01 4.22Q28.05 3.90 28.21 3.67L28.21 3.67L30.34 3.67L30.34 3.67Q30.12 5.73 29.76 7.50L29.76 7.50L29.76 7.50Q29.73 7.60 29.43 7.78L29.43 7.78L29.43 7.78Q29.12 7.95 28.94 7.95ZM20.62 7.94L20.62 7.94L20.62 7.94Q20.67 7.14 20.88 5.84L20.88 5.84L20.88 5.84Q21.08 4.54 21.18 4.16L21.18 4.16L21.18 4.16Q21.23 4.02 21.42 3.85L21.42 3.85L21.42 3.85Q21.61 3.67 21.73 3.67L21.73 3.67L23.81 3.67L23.81 3.67Q23.11 4.50 22.74 5.21L22.74 5.21L22.74 5.21Q22.37 5.91 22.02 6.57L22.02 6.57L22.02 6.57Q21.68 7.23 21.49 7.57L21.49 7.57L21.49 7.57Q21.45 7.65 21.11 7.80L21.11 7.80L21.11 7.80Q20.77 7.94 20.62 7.94ZM35.65 3.41L35.65 3.41L35.65 3.41Q35.11 3.87 35.11 4.52L35.11 4.52L35.11 4.52Q35.11 5.17 35.47 5.83L35.47 5.83L35.47 5.83Q35.83 6.48 36.31 6.94L36.31 6.94L36.31 6.94Q36.78 7.40 37.05 7.67L37.05 7.67L37.05 7.67Q37.31 7.94 37.64 8.32L37.64 8.32L37.64 8.32Q37.97 8.70 38.17 9.00L38.17 9.00L38.17 9.00Q38.64 9.73 38.64 10.28L38.64 10.28L38.64 10.28Q38.64 10.83 38.41 11.30L38.41 11.30L38.41 11.30Q38.18 11.77 37.76 12.16L37.76 12.16L37.76 12.16Q37.34 12.54 36.69 12.80L36.69 12.80L36.69 12.80Q36.03 13.05 35.25 13.08L35.25 13.08L35.25 13.08Q35.46 12.77 35.46 12.42L35.46 12.42L35.46 12.42Q35.46 12.08 35.32 11.72L35.32 11.72L35.32 11.72Q35.18 11.36 34.88 10.95L34.88 10.95L34.88 10.95Q34.41 10.29 33.83 9.65L33.83 9.65L33.83 9.65Q33.24 9.02 33.01 8.74L33.01 8.74L33.01 8.74Q32.79 8.47 32.50 8.05L32.50 8.05L32.50 8.05Q31.94 7.25 31.94 6.43L31.94 6.43L31.94 6.43Q31.94 5.62 32.44 4.92L32.44 4.92L32.44 4.92Q32.94 4.22 33.79 3.82L33.79 3.82L33.79 3.82Q34.64 3.42 35.65 3.41ZM37.93 7.54L37.93 7.54L37.93 7.54Q37.93 6.88 37.69 6.17L37.69 6.17L37.69 6.17Q37.21 4.80 36.11 3.96L36.11 3.96L36.11 3.96Q36.13 3.83 36.35 3.66L36.35 3.66L36.35 3.66Q36.57 3.49 36.71 3.49L36.71 3.49L36.71 3.49Q37.21 3.49 37.87 3.69L37.87 3.69L37.87 3.69Q38.54 3.89 38.93 4.07L38.93 4.07L38.93 4.07Q38.96 4.28 38.96 4.79L38.96 4.79L38.96 4.79Q38.96 5.30 38.87 6.06L38.87 6.06L38.87 6.06Q38.77 6.82 38.64 7.27L38.64 7.27L38.64 7.27Q38.60 7.37 38.35 7.45L38.35 7.45L38.35 7.45Q38.10 7.54 37.93 7.54ZM34.65 12.49L34.65 12.49L34.65 12.49Q34.57 12.95 34.40 13.11L34.40 13.11L34.40 13.11Q33.68 13.11 32.70 12.93L32.70 12.93L32.70 12.93Q31.73 12.74 31.28 12.46L31.28 12.46L31.28 12.46Q31.27 12.30 31.27 12.02L31.27 12.02L31.27 12.02Q31.27 10.69 31.59 9.50L31.59 9.50L31.59 9.50Q31.62 9.39 31.82 9.22L31.82 9.22L31.82 9.22Q32.03 9.05 32.19 9.05L32.19 9.05L32.19 9.05Q32.35 9.80 32.75 10.56L32.75 10.56L32.75 10.56Q33.16 11.32 33.68 11.84L33.68 11.84L33.68 11.84Q34.19 12.37 34.65 12.49Z"></path></g><!----><!----></svg>